<?xml version="1.0" encoding="utf-8"?>
<!-- Generator: Adobe Illustrator 23.0.4, SVG Export Plug-In . SVG Version: 6.00 Build 0)  -->
<svg version="1.1" id="Calque_1" xmlns="http://www.w3.org/2000/svg" xmlns:xlink="http://www.w3.org/1999/xlink" x="0px" y="0px"
	 viewBox="0 0 51.4 51.4" style="enable-background:new 0 0 51.4 51.4;" xml:space="preserve">
<style type="text/css">
	.st0{fill:#333333;}
</style>
<path id="dribbble-with-circle" class="st0" d="M26.4,25.7c0.1,0,0.2-0.1,0.3-0.1c-0.2-0.5-0.5-1-0.7-1.6c-3.5,1-7.1,1.5-10.7,1.5
	c0,0.1,0,0.1,0,0.2c0,2.5,0.9,5,2.6,6.9C19.8,29.4,22.8,27,26.4,25.7z M19.3,34.1c3,2.3,6.9,2.8,10.4,1.4c-0.5-2.7-1.2-5.3-2.2-7.8
	C21.8,29.6,19.7,33.4,19.3,34.1L19.3,34.1z M32.6,17.8c-2.5-2.2-5.9-3-9.1-2.3c1.4,1.9,2.7,3.9,3.8,6C29.3,20.7,31.2,19.4,32.6,17.8
	L32.6,17.8z M24.9,22.1c-1.2-2-2.4-4-3.8-5.9c-2.9,1.4-4.9,4-5.7,7.1h0C18.7,23.4,21.9,22.9,24.9,22.1L24.9,22.1z M29.8,27
	c0.9,2.4,1.5,4.8,2,7.3c2.3-1.6,3.8-4.1,4.3-6.8c-1.4-0.4-2.8-0.6-4.3-0.6C31.1,26.9,30.4,26.9,29.8,27L29.8,27z M25.7,0
	C11.5,0,0,11.5,0,25.7s11.5,25.7,25.7,25.7s25.7-11.5,25.7-25.7l0,0C51.4,11.5,39.9,0,25.7,0z M25.7,38.3c-6.9,0-12.6-5.6-12.6-12.6
	c0-6.9,5.6-12.6,12.6-12.6c6.9,0,12.6,5.6,12.6,12.6C38.3,32.7,32.7,38.3,25.7,38.3z M28.2,23.2c0.2,0.5,0.4,1,0.6,1.4
	c0.1,0.2,0.1,0.3,0.2,0.5c0.8-0.1,1.6-0.1,2.4-0.1c1.6,0,3.2,0.2,4.8,0.5c-0.1-2.3-0.9-4.5-2.3-6.3C32.4,21,30.4,22.4,28.2,23.2
	L28.2,23.2z"/>
</svg>
