<?xml version="1.0" encoding="utf-8"?>
<!-- Generator: Adobe Illustrator 23.0.4, SVG Export Plug-In . SVG Version: 6.00 Build 0)  -->
<svg version="1.1" id="Calque_1" xmlns="http://www.w3.org/2000/svg" xmlns:xlink="http://www.w3.org/1999/xlink" x="0px" y="0px"
	 viewBox="0 0 51.4 51.4" style="enable-background:new 0 0 51.4 51.4;" xml:space="preserve">
<style type="text/css">
	.st0{fill:#333333;}
</style>
<path id="malt-with-circle" class="st0" d="M25.7,0L25.7,0C11.5,0,0,11.5,0,25.7s11.5,25.7,25.7,25.7s25.7-11.5,25.7-25.7
	S39.9,0,25.7,0z M25.7,12.7c0.1,0,0.3,0,0.4,0c1.7,0.2,3,1.7,2.9,3.4l-3.3,3.3l-3.2-3.3C22.5,14.4,23.9,12.9,25.7,12.7z M19.1,15.6
	c0.9,0,1.7,0.4,2.2,1l3.7,3.9l-1.1,1.1h-6.8l-0.5-0.5c-0.6-0.6-0.9-1.5-0.9-2.3C15.8,17,17.3,15.6,19.1,15.6z M12.7,25.8
	c0-0.8,0.4-1.7,1-2.2c0.6-0.6,1.4-0.9,2.3-1v0.1h6.9L16.4,29C12.9,29,12.7,26.7,12.7,25.8z M21,34.9c-1.3,1.2-3.3,1.2-4.5,0
	c-1.2-1.3-1.2-3.3,0-4.6l13.8-13.7c1.3-1.3,3.3-1.3,4.6,0v-0.1l0,0c1.2,1.3,1.2,3.4-0.1,4.6L21,34.9L21,34.9z M25.7,38.7
	c-0.1,0-0.3,0-0.4,0c-1.7-0.2-3-1.7-2.9-3.4l3.2-3.3l3.3,3.3C29,37,27.5,38.5,25.7,38.7z M34.7,35.2c-1.3,1.2-3.4,1.2-4.6-0.2
	l-3.8-3.8l1.1-1.1l6.8,0.1l0.5,0.5h0.1l0,0C36.1,31.9,36,34,34.7,35.2z M37.7,28.2c-0.6,0.6-1.4,0.9-2.3,0.9h-6.9l6.5-6.5
	c0.1,0,0.1,0,0.2,0c1.9,0,3.4,1.5,3.4,3.3C38.6,26.8,38.3,27.6,37.7,28.2z"/>
</svg>
