<?xml version="1.0" encoding="utf-8"?>
<!-- Generator: Adobe Illustrator 23.0.4, SVG Export Plug-In . SVG Version: 6.00 Build 0)  -->
<svg version="1.1" id="Calque_1" xmlns="http://www.w3.org/2000/svg" xmlns:xlink="http://www.w3.org/1999/xlink" x="0px" y="0px"
	 viewBox="0 0 51.4 51.4" style="enable-background:new 0 0 51.4 51.4;" xml:space="preserve">
<style type="text/css">
	.st0{fill:#333333;}
</style>
<path id="github-with-circle" class="st0" d="M25.8,25.6L25.8,25.6c-3.3,0-6.1-0.8-7.7,0.7c-0.9,0.8-1.4,2-1.4,3.2
	c0,5,4,5.6,9.1,5.6h0.1c5.1,0,9.1-0.6,9.1-5.6c0-1.2-0.5-2.4-1.4-3.2C31.8,24.8,28.9,25.6,25.8,25.6z M21.4,32.4
	c-1,0-1.8-1.1-1.8-2.4s0.8-2.4,1.8-2.4s1.8,1.1,1.8,2.4S22.4,32.4,21.4,32.4L21.4,32.4z M30,32.4c-1,0-1.8-1.1-1.8-2.4
	s0.8-2.4,1.8-2.4s1.8,1.1,1.8,2.4S31,32.4,30,32.4L30,32.4z M25.7,0C11.5,0,0,11.5,0,25.7c0,14.2,11.5,25.7,25.7,25.7
	c14.2,0,25.7-11.5,25.7-25.7C51.4,11.5,39.9,0,25.7,0C25.7,0,25.7,0,25.7,0z M28.1,36.3c-0.5,0-1.4,0-2.3,0s-1.9,0-2.3,0
	c-2,0-10.1-0.2-10.1-9.9c0-1.9,0.7-3.8,2-5.2c-0.2-2,0.1-4.1,0.9-6c0,0,2.5,0.3,6.2,2.8c1.1-0.2,2.3-0.4,3.4-0.3
	c1.1,0,2.3,0.1,3.4,0.3c3.7-2.5,6.2-2.8,6.2-2.8c0.8,1.9,1.1,4,0.9,6c1.3,1.4,2.1,3.3,2,5.2C38.2,36.1,30.1,36.3,28.1,36.3z"/>
</svg>
