<?xml version="1.0" encoding="utf-8"?>
<!-- Generator: Adobe Illustrator 23.0.4, SVG Export Plug-In . SVG Version: 6.00 Build 0)  -->
<svg version="1.1" id="Calque_1" xmlns="http://www.w3.org/2000/svg" xmlns:xlink="http://www.w3.org/1999/xlink" x="0px" y="0px"
	 viewBox="0 0 51.4 51.4" style="enable-background:new 0 0 51.4 51.4;" xml:space="preserve">
<style type="text/css">
	.st0{fill:#333333;}
</style>
<path id="behance" class="st0" d="M25.7,51.4C11.5,51.4,0,39.9,0,25.7S11.5,0,25.7,0s25.7,11.5,25.7,25.7S39.9,51.4,25.7,51.4z
	 M33.8,20.4c-2.3-0.1-4.5,1.1-5.4,3.2c-0.5,1-0.7,2.1-0.8,3.2c-0.1,1.7,0.5,3.4,1.6,4.7c1.2,1.2,2.9,1.8,4.6,1.7c0,0,0.1,0,0.2,0
	c1,0,2.1-0.2,3-0.7c1.5-0.7,2.4-2.2,2.3-3.8h-2.8c0,0.4-0.2,0.8-0.5,1.1c-0.6,0.5-1.4,0.8-2.1,0.7c0,0,0,0-0.1,0
	c-0.5,0-1.1-0.1-1.6-0.4c-0.8-0.6-1.3-1.5-1.2-2.5h8.4c0,0,0.4-3.5-1.5-5.7C36.9,20.9,35.3,20.3,33.8,20.4z M13.4,16.1v16.8h8.5
	c1,0,1.9-0.2,2.7-0.7c1.6-0.8,2.5-2.5,2.3-4.3c0.1-1.2-0.3-2.4-1.1-3.4c-0.5-0.5-1.2-0.8-2-0.8c1.6-0.2,2.6-1.6,2.5-3.2
	c0.2-2.3-1.6-4.3-3.9-4.5c-0.2,0-0.5,0-0.7,0L13.4,16.1L13.4,16.1z M30.3,17.1v2.1H37v-2.1H30.3z M21.6,29.9h-4.5v-4.5h4.7
	c0.1,0,1.7,0,1.7,2.3C23.5,29.2,22.9,29.9,21.6,29.9z M36.3,25.4H31c0.2-1.4,1.4-2.5,2.8-2.6c0.6,0,1.3,0.2,1.7,0.6
	C36,24,36.3,24.7,36.3,25.4L36.3,25.4z M21.5,22.8h-4.4V19h4.7c0,0,1.1,0,1.1,1.8C22.9,22.6,22.3,22.8,21.5,22.8L21.5,22.8z"/>
</svg>
