<?xml version="1.0" encoding="utf-8"?>
<!-- Generator: Adobe Illustrator 23.0.4, SVG Export Plug-In . SVG Version: 6.00 Build 0)  -->
<svg version="1.1" id="Calque_1" xmlns="http://www.w3.org/2000/svg" xmlns:xlink="http://www.w3.org/1999/xlink" x="0px" y="0px"
	 viewBox="0 0 51.4 51.4" style="enable-background:new 0 0 51.4 51.4;" xml:space="preserve">
<style type="text/css">
	.st0{fill:#333333;}
</style>
<path id="linkedin-with-circle" class="st0" d="M25.7,0C11.5,0,0,11.5,0,25.7c0,14.2,11.5,25.7,25.7,25.7
	c14.2,0,25.7-11.5,25.7-25.7C51.4,11.5,39.9,0,25.7,0C25.7,0,25.7,0,25.7,0z M19.4,36.4h-5.2V19.6h5.2V36.4z M16.8,17.6
	c-1.4,0.1-2.6-1.1-2.7-2.5c-0.1-1.4,1.1-2.6,2.5-2.7c0.1,0,0.2,0,0.3,0c1.4-0.1,2.7,1,2.7,2.5c0.1,1.4-1,2.7-2.5,2.7
	C17,17.6,16.9,17.6,16.8,17.6z M38.4,36.4h-5.2v-9.3c0-2.2-0.8-3.6-2.6-3.6c-1.2,0-2.3,0.8-2.7,2c-0.1,0.4-0.2,0.9-0.2,1.3v9.7h-5.2
	V25c0-2.1-0.1-3.8-0.1-5.3h4.5l0.2,2.3h0.1c1.1-1.7,3.1-2.8,5.2-2.7c3.4,0,6,2.3,6,7.2L38.4,36.4z"/>
</svg>
