<?xml version="1.0" encoding="utf-8"?>
<!-- Generator: Adobe Illustrator 23.0.4, SVG Export Plug-In . SVG Version: 6.00 Build 0)  -->
<svg version="1.1" id="Calque_1" xmlns="http://www.w3.org/2000/svg" xmlns:xlink="http://www.w3.org/1999/xlink" x="0px" y="0px"
	 viewBox="0 0 51.4 51.4" style="enable-background:new 0 0 51.4 51.4;" xml:space="preserve">
<style type="text/css">
	.st0{fill:#FFFFFF;}
</style>
<title>back</title>
<path class="st0" d="M25.7,0C11.5,0,0,11.5,0,25.7s11.5,25.7,25.7,25.7s25.7-11.5,25.7-25.7l0,0C51.4,11.5,39.9,0,25.7,0
	C25.7,0,25.7,0,25.7,0z M32.2,35.2c1.1,1,1.1,2.6,0.2,3.7c-0.1,0.1-0.1,0.1-0.2,0.2c-1.1,1-2.8,1-3.9,0c-1-1-11-11.5-11-11.5
	c-1.1-1-1.1-2.7-0.1-3.8c0,0,0,0,0.1-0.1c0,0,10-10.5,11-11.4c1.1-1,2.8-1,3.9,0c1.1,1,1.1,2.6,0.2,3.7c-0.1,0.1-0.1,0.1-0.2,0.2
	L23,25.6L32.2,35.2z"/>
</svg>
