<?xml version="1.0" encoding="utf-8"?>
<!-- Generator: Adobe Illustrator 23.0.4, SVG Export Plug-In . SVG Version: 6.00 Build 0)  -->
<svg version="1.1" id="Calque_1" xmlns="http://www.w3.org/2000/svg" xmlns:xlink="http://www.w3.org/1999/xlink" x="0px" y="0px"
	 viewBox="0 0 51.4 51.4" style="enable-background:new 0 0 51.4 51.4;" xml:space="preserve">
<style type="text/css">
	.st0{fill:#333333;}
</style>
<g>
	<polygon class="st0" points="16.6,29.5 24.4,34.7 24.4,30.1 20.1,27.2 	"/>
	<polygon class="st0" points="24.4,21.2 24.4,16.7 16.6,21.9 20.1,24.2 	"/>
	<polygon class="st0" points="25.7,23.4 22.3,25.7 25.7,27.9 29.1,25.7 	"/>
	<polygon class="st0" points="34.7,21.9 26.9,16.7 26.9,21.2 31.3,24.2 	"/>
	<polygon class="st0" points="15.6,24.2 15.6,27.1 17.8,25.7 	"/>
	<path class="st0" d="M25.7,0L25.7,0C11.5,0,0,11.5,0,25.7s11.5,25.7,25.7,25.7s25.7-11.5,25.7-25.7S39.9,0,25.7,0z M38.3,29.5
		c0,0.2-0.1,0.5-0.2,0.7l0,0l0,0l0,0c-0.1,0.1-0.2,0.3-0.4,0.3L26.4,38c-0.2,0.1-0.5,0.2-0.7,0.2s-0.5,0-0.7-0.2l-11.3-7.5
		c-0.1-0.1-0.3-0.2-0.4-0.3l0,0l0,0l0,0c-0.1-0.2-0.2-0.5-0.2-0.7v-7.6c0-0.2,0.1-0.5,0.2-0.7l0,0l0,0l0,0c0.1-0.1,0.2-0.3,0.4-0.3
		L25,13.3c0.2-0.1,0.4-0.2,0.7-0.2l0,0l0,0l0,0l0,0l0,0c0.3,0,0.5,0.1,0.7,0.2l11.3,7.5c0.1,0.1,0.3,0.2,0.4,0.3l0,0l0,0l0,0
		c0.1,0.2,0.2,0.5,0.2,0.7C38.3,21.8,38.3,29.5,38.3,29.5z"/>
	<polygon class="st0" points="35.8,27.1 35.8,24.2 33.6,25.7 	"/>
	<polygon class="st0" points="26.9,30.1 26.9,34.7 34.8,29.5 31.3,27.2 	"/>
</g>
</svg>
