<?xml version="1.0" encoding="utf-8"?>
<!-- Generator: Adobe Illustrator 23.0.4, SVG Export Plug-In . SVG Version: 6.00 Build 0)  -->
<svg version="1.1" id="Calque_1" xmlns="http://www.w3.org/2000/svg" xmlns:xlink="http://www.w3.org/1999/xlink" x="0px" y="0px"
	 viewBox="0 0 51.4 51.4" style="enable-background:new 0 0 51.4 51.4;" xml:space="preserve">
<style type="text/css">
	.st0{fill:#333333;}
</style>
<path class="st0" d="M25.7,0C25.7,0,25.7,0,25.7,0C11.5,0,0,11.5,0,25.7s11.5,25.7,25.7,25.7s25.7-11.5,25.7-25.7
	C51.4,11.5,39.9,0,25.7,0z M17.5,16.6c0-0.1,0.1-0.2,0.2-0.3l7.1-4.4c0.2-0.1,0.4-0.3,0.7-0.4l-6.2,16.7c-2.5-1-4.9-1.9-7.3-2.9
	c1.9-2,3.6-3.7,5.5-5.6C17.5,18.6,17.5,17.6,17.5,16.6z M25.4,39.5L20,34l-0.8,0c-0.7,0-1.3,0-2,0c-0.3,0-0.5-0.1-0.6-0.4l-4.3-7.3
	c-0.1-0.2-0.2-0.4-0.3-0.6l16.3,6.4C27.3,34.6,26.4,37.1,25.4,39.5z M33.9,31.5c0,0.1,0,0.2,0,0.3v2.6c0,0.2-0.1,0.4-0.3,0.5h0
	c-2.5,1.6-5,3.1-7.5,4.7l-0.3,0.2c2.1-5.5,4.1-11.1,6.2-16.7l7.3,2.9C37.5,27.8,35.7,29.6,33.9,31.5z M23.1,19.2l2.8-7.5
	c1.9,1.9,3.7,3.8,5.6,5.8c0.9,0,1.9,0,2.9,0c0.1,0,0.2,0.1,0.3,0.2c1.2,2,2.4,4,3.6,6l1.1,1.9L23.1,19.2z"/>
</svg>
