<svg xmlns="http://www.w3.org/2000/svg" width="32.545" height="32.544" viewBox="0 0 32.545 32.544">
  <defs>
    <style>
      .cls-1, .cls-3 {
        fill: #333;
      }

      .cls-2, .cls-3 {
        <!-- stroke: none; -->
        stroke-width: 1px;
        stroke: #333;
      }
    </style>
  </defs>
  <g id="Union_22" data-name="Union 22" class="cls-1" transform="translate(0)">
    <path class="cls-2" d="M 16.27227973937988 32.19063186645508 L 11.68317985534668 27.60167694091797 L 11.60995960235596 27.52845764160156 L 11.50640964508057 27.52845764160156 L 5.016209602355957 27.52845764160156 L 5.016209602355957 21.03848648071289 L 5.016209602355957 20.93492698669434 L 4.942979335784912 20.86170768737793 L 0.3535556793212891 16.27238845825195 L 4.942989349365234 11.68291664123535 L 5.016209602355957 11.60968685150146 L 5.016209602355957 11.50613689422607 L 5.016209602355957 5.016277313232422 L 11.50606918334961 5.016277313232422 L 11.609619140625 5.016277313232422 L 11.68284893035889 4.943057060241699 L 16.27228736877441 0.3535513579845428 L 20.86190032958984 4.943057060241699 L 20.93511962890625 5.016277313232422 L 21.03866958618164 5.016277313232422 L 27.52843856811523 5.016277313232422 L 27.52843856811523 11.50613689422607 L 27.52843856811523 11.60968685150146 L 27.60165977478027 11.68291664123535 L 32.19118118286133 16.27238845825195 L 27.60166931152344 20.86170768737793 L 27.52843856811523 20.93492698669434 L 27.52843856811523 21.03848648071289 L 27.52843856811523 27.52845764160156 L 21.03817939758301 27.52845764160156 L 20.93462944030762 27.52845764160156 L 20.86141014099121 27.60167694091797 L 16.27227973937988 32.19063186645508 Z"/>
    <path class="cls-3" d="M 16.27227973937988 31.83708000183105 L 20.68462944030762 27.42489624023438 L 20.83107948303223 27.27845764160156 L 21.03817939758301 27.27845764160156 L 27.27843856811523 27.27845764160156 L 27.27843856811523 21.03848648071289 L 27.27843856811523 20.83137702941895 L 27.42488861083984 20.68492698669434 L 31.83761978149414 16.27238082885742 L 27.42488861083984 11.85969734191895 L 27.27843856811523 11.71324729919434 L 27.27843856811523 11.50613689422607 L 27.27843856811523 5.266277313232422 L 21.03866958618164 5.266277313232422 L 20.83156967163086 5.266277313232422 L 20.68511962890625 5.119837284088135 L 16.27228546142578 0.7071056365966797 L 11.85962963104248 5.119827270507812 L 11.71317958831787 5.266277313232422 L 11.50606918334961 5.266277313232422 L 5.266209602355957 5.266277313232422 L 5.266209602355957 11.50613689422607 L 5.266209602355957 11.71324729919434 L 5.119759559631348 11.85968685150146 L 0.7071070075035095 16.27237701416016 L 5.119759559631348 20.68492698669434 L 5.266209602355957 20.83137702941895 L 5.266209602355957 21.03848648071289 L 5.266209602355957 27.27845764160156 L 11.50640964508057 27.27845764160156 L 11.71350955963135 27.27845764160156 L 11.85995960235596 27.42489624023438 L 16.27227973937988 31.83708000183105 M 16.27227973937988 32.5441780090332 L 11.50640964508057 27.77845764160156 L 4.766209602355957 27.77845764160156 L 4.766209602355957 21.03848648071289 L -6.152343985377229e-07 16.27238655090332 L 4.766209602355957 11.50613689422607 L 4.766209602355957 4.766277313232422 L 11.50606918334961 4.766277313232422 L 16.27227973937988 -2.902831965911901e-06 L 21.03866958618164 4.766277313232422 L 27.77843856811523 4.766277313232422 L 27.77843856811523 11.50613689422607 L 32.54473876953125 16.27238655090332 L 27.77843856811523 21.03848648071289 L 27.77843856811523 27.77845764160156 L 21.03817939758301 27.77845764160156 L 16.27227973937988 32.5441780090332 Z"/>
  </g>
</svg>
