<svg xmlns="http://www.w3.org/2000/svg" width="32.542" height="32.544" viewBox="0 0 32.542 32.544">
  <defs>
    <style>
      .cls-1 {
        fill: none;
      }

      .cls-2, .cls-4 {
        fill: #333;
      }

      .cls-3, .cls-4 {
        <!-- stroke: none; -->
        stroke-width: 0.5px;
        stroke: #333;
      }
    </style>
  </defs>
  <g id="Groupe_53" data-name="Groupe 53" transform="translate(0)">
    <g id="Union_7" data-name="Union 7" class="cls-1" transform="translate(0 0)">
      <path class="cls-3" d="M11.505,27.776H4.766V21.036L0,16.271l4.766-4.766V4.766H11.5L16.271,0l4.766,4.766h6.739v6.739l4.766,4.766-4.766,4.766v6.739h-6.74l-4.765,4.765Z"/>
      <path class="cls-4" d="M 16.27074241638184 31.83401870727539 L 20.68264961242676 27.42228698730469 L 20.82909965515137 27.27584648132324 L 21.03619956970215 27.27584648132324 L 27.27582931518555 27.27584648132324 L 27.27582931518555 21.0364875793457 L 27.27582931518555 20.82937812805176 L 27.42227935791016 20.68292808532715 L 31.83456611633301 16.27082633972168 L 27.42227935791016 11.85857772827148 L 27.27582931518555 11.71213722229004 L 27.27582931518555 11.50502777099609 L 27.27582931518555 5.265817165374756 L 21.03668975830078 5.265817165374756 L 20.82958984375 5.265817165374756 L 20.68313980102539 5.119377613067627 L 16.2707462310791 0.7071051597595215 L 11.85855007171631 5.119367599487305 L 11.7121000289917 5.265817165374756 L 11.50498962402344 5.265817165374756 L 5.265749454498291 5.265817165374756 L 5.265749454498291 11.50502777099609 L 5.265749454498291 11.71212768554688 L 5.119309902191162 11.85857772827148 L 0.7071111798286438 16.27083206176758 L 5.11929988861084 20.68292808532715 L 5.265749454498291 20.82937812805176 L 5.265749454498291 21.0364875793457 L 5.265749454498291 27.27584648132324 L 11.50533962249756 27.27584648132324 L 11.71243953704834 27.27584648132324 L 11.85888957977295 27.42228698730469 L 16.27074241638184 31.83401870727539 M 16.2707405090332 32.54111862182617 L 11.50533962249756 27.77584648132324 L 4.765749454498291 27.77584648132324 L 4.765749454498291 21.0364875793457 L -3.088378832671879e-07 16.27083778381348 L 4.765749454498291 11.50502777099609 L 4.765749454498291 4.765817165374756 L 11.50498962402344 4.765817165374756 L 16.2707405090332 -2.596435479063075e-06 L 21.03668975830078 4.765817165374756 L 27.77582931518555 4.765817165374756 L 27.77582931518555 11.50502777099609 L 32.54167938232422 16.27083778381348 L 27.77582931518555 21.0364875793457 L 27.77582931518555 27.77584648132324 L 21.03619956970215 27.77584648132324 L 16.2707405090332 32.54111862182617 Z"/>
    </g>
    <g id="Intersection_2" data-name="Intersection 2" class="cls-2" transform="translate(16.275 32.544) rotate(180)">
      <path class="cls-3" d="M 0.2500006556510925 31.93976020812988 L 0.2500006556510925 0.6035580635070801 L 4.587340831756592 4.940879821777344 L 4.660570621490479 5.014100074768066 L 4.764120578765869 5.014100074768066 L 11.25513076782227 5.014100074768066 L 11.25513076782227 11.50022029876709 L 11.25513076782227 11.60377025604248 L 11.32835102081299 11.67700004577637 L 15.92057991027832 16.26921081542969 L 11.32835102081299 20.86142921447754 L 11.25513076782227 20.93465995788574 L 11.25513076782227 21.03820991516113 L 11.25513076782227 27.52432060241699 L 4.769010543823242 27.52432060241699 L 4.665460586547852 27.52432060241699 L 4.592230796813965 27.5975399017334 L 0.2500006556510925 31.93976020812988 Z"/>
      <path class="cls-4" d="M 0.5000006556510925 31.33622169494629 L 4.415460586547852 27.4207706451416 L 4.561900615692139 27.27432060241699 L 4.769010543823242 27.27432060241699 L 11.00513076782227 27.27432060241699 L 11.00513076782227 21.03820991516113 L 11.00513076782227 20.83110046386719 L 11.15158081054688 20.68465995788574 L 15.56703948974609 16.26921081542969 L 11.15158081054688 11.85377025604248 L 11.00513076782227 11.70732975006104 L 11.00513076782227 11.50022029876709 L 11.00513076782227 5.264100074768066 L 4.764120578765869 5.264100074768066 L 4.557010650634766 5.264100074768066 L 4.410570621490479 5.117650032043457 L 0.5000006556510925 1.207096219062805 L 0.5000006556510925 31.33622169494629 M 6.558227596542565e-07 32.54331970214844 L 6.558227596542565e-07 -1.489257783759967e-07 L 4.764120578765869 4.764100074768066 L 11.50513076782227 4.764100074768066 L 11.50513076782227 11.50022029876709 L 16.27414131164551 16.26920890808105 L 11.50513076782227 21.03820991516113 L 11.50513076782227 27.77432060241699 L 4.769010543823242 27.77432060241699 L 6.558227596542565e-07 32.54331970214844 Z"/>
    </g>
  </g>
</svg>
