<svg xmlns="http://www.w3.org/2000/svg" width="93.946" height="93.946" viewBox="0 0 93.946 93.946">
  <defs>
    <style>
      .cls-1 {
        fill: #333;
      }

      .cls-2 {
        fill: none;
        stroke: #fff;
        stroke-linecap: round;
        stroke-linejoin: round;
        stroke-width: 3px;
      }
    </style>
  </defs>
  <g id="Groupe_74" data-name="Groupe 74" transform="translate(0)">
    <circle id="Ellipse_15" data-name="Ellipse 15" class="cls-1" cx="46.973" cy="46.973" r="46.973" transform="translate(0 0)"/>
    <g id="techno" transform="translate(12.526 30.162)">
      <g id="techno2" transform="translate(0 0)">
        <g id="Groupe_63" data-name="Groupe 63" transform="translate(0)">
          <path id="Tracé_25" data-name="Tracé 25" class="cls-2" d="M37.86,12.354A11.592,11.592,0,0,1,49.165.5c3.494,0,6.618,2.624,8.693,5.26C59.927,3.124,63.051.5,66.545.5A11.592,11.592,0,0,1,77.85,12.354c0,9.518-19.993,25.59-19.993,25.59S37.86,21.871,37.86,12.354Z" transform="translate(-22.622 -0.5)"/>
          <path id="Tracé_26" data-name="Tracé 26" class="cls-2" d="M7.829,8.26.5,15.589l7.329,7.332" transform="translate(-0.5 3.131)"/>
          <path id="Tracé_27" data-name="Tracé 27" class="cls-2" d="M124.94,22.921l7.329-7.332L124.94,8.26" transform="translate(-61.803 3.131)"/>
        </g>
      </g>
    </g>
  </g>
</svg>
